<svg version="1.1" viewBox="0.0 0.0 100.0 100.0" fill="none" stroke="none" stroke-linecap="square" stroke-miterlimit="10" xmlns:xlink="http://www.w3.org/1999/xlink" xmlns="http://www.w3.org/2000/svg"><clipPath id="p.0"><path d="m0 0l100.0 0l0 100.0l-100.0 0l0 -100.0z" clip-rule="nonzero"/></clipPath><g clip-path="url(#p.0)"><path fill="#000000" fill-opacity="0.0" d="m0 0l100.0 0l0 100.0l-100.0 0z" fill-rule="evenodd"/><path fill="#10a7e7" d="m1.2913386 50.0l0 0c0 -26.90105 21.807611 -48.70866 48.70866 -48.70866l0 0c12.918339 0 25.307579 5.1317906 34.442223 14.266437c9.134651 9.134645 14.266441 21.523886 14.266441 34.442223l0 0c0 26.901054 -21.80761 48.708664 -48.708664 48.708664l0 0c-26.90105 0 -48.70866 -21.80761 -48.70866 -48.708664z" fill-rule="evenodd"/><path stroke="#000000" stroke-width="1.0" stroke-linejoin="round" stroke-linecap="butt" d="m1.2913386 50.0l0 0c0 -26.90105 21.807611 -48.70866 48.70866 -48.70866l0 0c12.918339 0 25.307579 5.1317906 34.442223 14.266437c9.134651 9.134645 14.266441 21.523886 14.266441 34.442223l0 0c0 26.901054 -21.80761 48.708664 -48.708664 48.708664l0 0c-26.90105 0 -48.70866 -21.80761 -48.70866 -48.708664z" fill-rule="evenodd"/><path fill="#ffffff" d="m17.217058 50.753918l0 0c-0.4435768 -0.4435768 -0.4442463 -1.1634216 -0.0014953613 -1.6078224l15.310045 -15.367062c0.21261597 -0.21340942 0.5011406 -0.33345795 0.80210876 -0.33373642c0.30096436 -2.822876E-4 0.58971405 0.11923218 0.80272675 0.33224487l3.2125664 3.2125664c0.4435768 0.443573 0.44424438 1.1634216 0.0014953613 1.6078224l-15.310043 15.367062c-0.44275093 0.4444008 -1.1612625 0.44506836 -1.6048374 0.0014915466z" fill-rule="evenodd"/><path stroke="#000000" stroke-width="1.0" stroke-linejoin="round" stroke-linecap="butt" d="m17.217058 50.753918l0 0c-0.4435768 -0.4435768 -0.4442463 -1.1634216 -0.0014953613 -1.6078224l15.310045 -15.367062c0.21261597 -0.21340942 0.5011406 -0.33345795 0.80210876 -0.33373642c0.30096436 -2.822876E-4 0.58971405 0.11923218 0.80272675 0.33224487l3.2125664 3.2125664c0.4435768 0.443573 0.44424438 1.1634216 0.0014953613 1.6078224l-15.310043 15.367062c-0.44275093 0.4444008 -1.1612625 0.44506836 -1.6048374 0.0014915466z" fill-rule="evenodd"/><path fill="#ffffff" d="m20.398129 46.09775l0 0c0.4435749 -0.4435768 1.1634216 -0.44424438 1.6078224 -0.0014953613l15.367065 15.310043c0.21340561 0.21261597 0.33345413 0.5011444 0.33373642 0.80210876c2.784729E-4 0.30096436 -0.11923218 0.58971405 -0.3322487 0.80272675l-3.2125626 3.2125664c-0.4435768 0.44358063 -1.1634254 0.44424438 -1.6078262 0.0014953613l-15.367062 -15.310043c-0.4444008 -0.44274902 -0.44506836 -1.1612587 -0.0014915466 -1.6048355z" fill-rule="evenodd"/><path stroke="#000000" stroke-width="1.0" stroke-linejoin="round" stroke-linecap="butt" d="m20.398129 46.09775l0 0c0.4435749 -0.4435768 1.1634216 -0.44424438 1.6078224 -0.0014953613l15.367065 15.310043c0.21340561 0.21261597 0.33345413 0.5011444 0.33373642 0.80210876c2.784729E-4 0.30096436 -0.11923218 0.58971405 -0.3322487 0.80272675l-3.2125626 3.2125664c-0.4435768 0.44358063 -1.1634254 0.44424438 -1.6078262 0.0014953613l-15.367062 -15.310043c-0.4444008 -0.44274902 -0.44506836 -1.1612587 -0.0014915466 -1.6048355z" fill-rule="evenodd"/><path fill="#ffffff" d="m82.781334 49.247326l0 0c0.443573 0.4435768 0.44424438 1.1634216 0.0014877319 1.6078224l-15.310043 15.367065c-0.21261597 0.21340942 -0.5011444 0.33345795 -0.80210876 0.3337326c-0.30096436 2.822876E-4 -0.58971405 -0.11923218 -0.80272675 -0.33224487l-3.2125664 -3.2125664c-0.443573 -0.443573 -0.44424438 -1.1634216 -0.0014915466 -1.6078224l15.310043 -15.367062c0.44274902 -0.4444008 1.1612625 -0.44506836 1.6048355 -0.0014915466z" fill-rule="evenodd"/><path stroke="#000000" stroke-width="1.0" stroke-linejoin="round" stroke-linecap="butt" d="m82.781334 49.247326l0 0c0.443573 0.4435768 0.44424438 1.1634216 0.0014877319 1.6078224l-15.310043 15.367065c-0.21261597 0.21340942 -0.5011444 0.33345795 -0.80210876 0.3337326c-0.30096436 2.822876E-4 -0.58971405 -0.11923218 -0.80272675 -0.33224487l-3.2125664 -3.2125664c-0.443573 -0.443573 -0.44424438 -1.1634216 -0.0014915466 -1.6078224l15.310043 -15.367062c0.44274902 -0.4444008 1.1612625 -0.44506836 1.6048355 -0.0014915466z" fill-rule="evenodd"/><path fill="#ffffff" d="m79.60026 53.903492l0 0c-0.443573 0.4435768 -1.1634216 0.44424438 -1.6078186 0.0014953613l-15.367065 -15.310043c-0.21340942 -0.21261597 -0.33345795 -0.5011444 -0.33373642 -0.80210876c-2.822876E-4 -0.30096436 0.11923218 -0.58971405 0.33224487 -0.80272675l3.2125664 -3.2125664c0.443573 -0.4435768 1.1634216 -0.4442482 1.6078186 -0.0014953613l15.367065 15.310043c0.4444046 0.44274902 0.44506836 1.1612587 0.0014953613 1.6048355z" fill-rule="evenodd"/><path stroke="#000000" stroke-width="1.0" stroke-linejoin="round" stroke-linecap="butt" d="m79.60026 53.903492l0 0c-0.443573 0.4435768 -1.1634216 0.44424438 -1.6078186 0.0014953613l-15.367065 -15.310043c-0.21340942 -0.21261597 -0.33345795 -0.5011444 -0.33373642 -0.80210876c-2.822876E-4 -0.30096436 0.11923218 -0.58971405 0.33224487 -0.80272675l3.2125664 -3.2125664c0.443573 -0.4435768 1.1634216 -0.4442482 1.6078186 -0.0014953613l15.367065 15.310043c0.4444046 0.44274902 0.44506836 1.1612587 0.0014953613 1.6048355z" fill-rule="evenodd"/><path fill="#ffffff" d="m38.14711 59.926426l0 0c-0.2725258 -0.27252197 -0.27300644 -0.7148514 -0.0010719299 -0.98796463l20.747528 -20.837738c0.13058853 -0.1311531 0.30781174 -0.20494843 0.49269104 -0.20514679c0.1848793 -2.0217896E-4 0.36226273 0.073207855 0.49313354 0.20407867l1.9737358 1.9737358c0.27252197 0.27252197 0.27300262 0.71484756 0.0010719299 0.98796463l-20.747532 20.837734l0 0c-0.2719307 0.27311707 -0.7133026 0.2735939 -0.9858246 0.0010719299z" fill-rule="evenodd"/><path stroke="#000000" stroke-width="1.0" stroke-linejoin="round" stroke-linecap="butt" d="m38.14711 59.926426l0 0c-0.2725258 -0.27252197 -0.27300644 -0.7148514 -0.0010719299 -0.98796463l20.747528 -20.837738c0.13058853 -0.1311531 0.30781174 -0.20494843 0.49269104 -0.20514679c0.1848793 -2.0217896E-4 0.36226273 0.073207855 0.49313354 0.20407867l1.9737358 1.9737358c0.27252197 0.27252197 0.27300262 0.71484756 0.0010719299 0.98796463l-20.747532 20.837734l0 0c-0.2719307 0.27311707 -0.7133026 0.2735939 -0.9858246 0.0010719299z" fill-rule="evenodd"/><path fill="#ffffff" d="m32.81383 34.12323l0 0c0.24069977 -0.24069977 0.6309471 -0.24069977 0.87164307 0l3.3173332 3.3173332c0.11558914 0.11558533 0.18052292 0.27235413 0.18052292 0.43582153c0 0.16346359 -0.06493378 0.3202324 -0.18052292 0.43582153l-15.380325 15.380325c-0.24069786 0.24069595 -0.6309452 0.24069595 -0.87164116 0l-3.3173351 -3.3173332c-0.24069786 -0.24069977 -0.24069786 -0.6309471 0 -0.87164307z" fill-rule="evenodd"/><path fill="#ffffff" d="m78.43851 46.24659l0 0c0.24069214 -0.24069977 0.6309433 -0.24069977 0.87164307 0l3.3173294 3.3173332c0.11558533 0.11558533 0.18052673 0.27235413 0.18052673 0.43582153c0 0.16346359 -0.064941406 0.3202324 -0.18052673 0.43582153l-15.380325 15.3803215c-0.24069977 0.24069977 -0.6309433 0.24069977 -0.87164307 0l-3.3173332 -3.3173294c-0.24069595 -0.24069977 -0.24069595 -0.6309471 0 -0.87164307z" fill-rule="evenodd"/></g></svg>