<svg version="1.1" viewBox="0.0 0.0 100.0 100.0" fill="none" stroke="none" stroke-linecap="square" stroke-miterlimit="10" xmlns:xlink="http://www.w3.org/1999/xlink" xmlns="http://www.w3.org/2000/svg"><clipPath id="p.0"><path d="m0 0l100.0 0l0 100.0l-100.0 0l0 -100.0z" clip-rule="nonzero"/></clipPath><g clip-path="url(#p.0)"><path fill="#000000" fill-opacity="0.0" d="m0 0l100.0 0l0 100.0l-100.0 0z" fill-rule="evenodd"/><path fill="#f30a42" d="m1.2913386 50.0l0 0c0 -26.90105 21.807611 -48.70866 48.70866 -48.70866l0 0c12.918339 0 25.307579 5.1317906 34.442223 14.266437c9.134651 9.134645 14.266441 21.523886 14.266441 34.442223l0 0c0 26.901054 -21.80761 48.708664 -48.708664 48.708664l0 0c-26.90105 0 -48.70866 -21.80761 -48.70866 -48.708664z" fill-rule="evenodd"/><path stroke="#000000" stroke-width="1.0" stroke-linejoin="round" stroke-linecap="butt" d="m1.2913386 50.0l0 0c0 -26.90105 21.807611 -48.70866 48.70866 -48.70866l0 0c12.918339 0 25.307579 5.1317906 34.442223 14.266437c9.134651 9.134645 14.266441 21.523886 14.266441 34.442223l0 0c0 26.901054 -21.80761 48.708664 -48.708664 48.708664l0 0c-26.90105 0 -48.70866 -21.80761 -48.70866 -48.708664z" fill-rule="evenodd"/><path fill="#f3f3f3" fill-opacity="0.6115" d="m46.3307 27.480082l0 0c0.24353027 0 0.4409523 0.19742203 0.4409523 0.4409542l0 1.7637615l0 0c0 0.116947174 -0.046455383 0.2291069 -0.12915039 0.3118019c-0.08269501 0.0826931 -0.19485474 0.1291523 -0.3118019 0.1291523l-5.354313 0c-0.24353409 0 -0.4409523 -0.19742203 -0.4409523 -0.4409542l0 -1.7637615c0 -0.24353218 0.19741821 -0.4409542 0.4409523 -0.4409542z" fill-rule="evenodd"/><path stroke="#000000" stroke-width="1.0" stroke-linejoin="round" stroke-linecap="butt" d="m46.3307 27.480082l0 0c0.24353027 0 0.4409523 0.19742203 0.4409523 0.4409542l0 1.7637615l0 0c0 0.116947174 -0.046455383 0.2291069 -0.12915039 0.3118019c-0.08269501 0.0826931 -0.19485474 0.1291523 -0.3118019 0.1291523l-5.354313 0c-0.24353409 0 -0.4409523 -0.19742203 -0.4409523 -0.4409542l0 -1.7637615c0 -0.24353218 0.19741821 -0.4409542 0.4409523 -0.4409542z" fill-rule="evenodd"/><path fill="#434343" d="m24.362206 67.91338l0 0c0 -2.1482544 1.7415066 -3.8897629 3.8897629 -3.8897629l43.496063 0c1.0316315 0 2.0210037 0.40981293 2.7504807 1.1392899c0.7294693 0.7294693 1.1392822 1.7188492 1.1392822 2.750473l0 0l0 0c0 2.148262 -1.7415085 3.8897629 -3.8897629 3.8897629l-43.496063 0c-2.1482563 0 -3.8897629 -1.7415009 -3.8897629 -3.8897629z" fill-rule="evenodd"/><path stroke="#000000" stroke-width="1.0" stroke-linejoin="round" stroke-linecap="butt" d="m24.362206 67.91338l0 0c0 -2.1482544 1.7415066 -3.8897629 3.8897629 -3.8897629l43.496063 0c1.0316315 0 2.0210037 0.40981293 2.7504807 1.1392899c0.7294693 0.7294693 1.1392822 1.7188492 1.1392822 2.750473l0 0l0 0c0 2.148262 -1.7415085 3.8897629 -3.8897629 3.8897629l-43.496063 0c-2.1482563 0 -3.8897629 -1.7415009 -3.8897629 -3.8897629z" fill-rule="evenodd"/><path fill="#ffffff" d="m56.790028 32.417324l17.338612 0l0 0c7.0187836 0 12.708633 5.689846 12.708633 12.70863l0 0l0 0c0 3.3705406 -1.3389435 6.603031 -3.7222748 8.986362c-2.3833313 2.3833313 -5.615822 3.722271 -8.986359 3.722271l-2.3149872 0l0 4.629978l-7.511818 -7.5118103l7.511818 -7.5118103l0 4.629978l2.3149872 0l0 0c3.8356018 0 6.944969 -3.1093674 6.944969 -6.944969l0 0l0 0c0 -3.835598 -3.1093674 -6.944969 -6.944969 -6.944969l-17.338612 0z" fill-rule="evenodd"/><path stroke="#000000" stroke-width="1.0" stroke-linejoin="round" stroke-linecap="butt" d="m56.790028 32.417324l17.338612 0l0 0c7.0187836 0 12.708633 5.689846 12.708633 12.70863l0 0l0 0c0 3.3705406 -1.3389435 6.603031 -3.7222748 8.986362c-2.3833313 2.3833313 -5.615822 3.722271 -8.986359 3.722271l-2.3149872 0l0 4.629978l-7.511818 -7.5118103l7.511818 -7.5118103l0 4.629978l2.3149872 0l0 0c3.8356018 0 6.944969 -3.1093674 6.944969 -6.944969l0 0l0 0c0 -3.835598 -3.1093674 -6.944969 -6.944969 -6.944969l-17.338612 0z" fill-rule="evenodd"/><path fill="#ffffff" d="m27.653543 33.62249l0 0c0 -2.3340473 1.8921185 -4.226164 4.226164 -4.226164l36.240585 0c1.1208496 0 2.1957932 0.44525528 2.98835 1.237814c0.79255676 0.79255867 1.2378159 1.8675003 1.2378159 2.98835l0 30.28783c0 2.3340416 -1.8921204 4.226162 -4.226166 4.226162l-36.240585 0c-2.3340454 0 -4.226164 -1.8921204 -4.226164 -4.226162z" fill-rule="evenodd"/><path stroke="#000000" stroke-width="1.0" stroke-linejoin="round" stroke-linecap="butt" d="m27.653543 33.62249l0 0c0 -2.3340473 1.8921185 -4.226164 4.226164 -4.226164l36.240585 0c1.1208496 0 2.1957932 0.44525528 2.98835 1.237814c0.79255676 0.79255867 1.2378159 1.8675003 1.2378159 2.98835l0 30.28783c0 2.3340416 -1.8921204 4.226162 -4.226166 4.226162l-36.240585 0c-2.3340454 0 -4.226164 -1.8921204 -4.226164 -4.226162z" fill-rule="evenodd"/><path fill="#f3f3f3" fill-opacity="0.6115" d="m60.879242 19.29652l0 0c0.65231705 0 1.1811256 0.5288086 1.1811256 1.1811275l0 4.7243614l0 0c0 0.3132534 -0.12443924 0.613678 -0.34594345 0.8351822c-0.22150421 0.22150421 -0.5219269 0.34594345 -0.8351822 0.34594345l-11.086567 0c-0.65231705 0 -1.1811256 -0.5288086 -1.1811256 -1.1811256l0 -4.7243614c0 -0.65231895 0.5288086 -1.1811275 1.1811256 -1.1811275z" fill-rule="evenodd"/><path stroke="#000000" stroke-width="1.0" stroke-linejoin="round" stroke-linecap="butt" d="m60.879242 19.29652l0 0c0.65231705 0 1.1811256 0.5288086 1.1811256 1.1811275l0 4.7243614l0 0c0 0.3132534 -0.12443924 0.613678 -0.34594345 0.8351822c-0.22150421 0.22150421 -0.5219269 0.34594345 -0.8351822 0.34594345l-11.086567 0c-0.65231705 0 -1.1811256 -0.5288086 -1.1811256 -1.1811256l0 -4.7243614c0 -0.65231895 0.5288086 -1.1811275 1.1811256 -1.1811275z" fill-rule="evenodd"/><path fill="#f3f3f3" fill-opacity="0.6115" d="m53.522278 6.8034844l0 0c0.8726578 0 1.5800858 0.7074275 1.5800858 1.5800843l0 6.3201466l0 0c0 0.41906452 -0.16647339 0.8209648 -0.46279907 1.1172876c-0.29632187 0.29632378 -0.6982231 0.46279716 -1.1172867 0.46279716l-15.768967 0c-0.87265396 0 -1.5800819 -0.70742893 -1.5800819 -1.5800848l0 -6.3201466c0 -0.8726568 0.707428 -1.5800843 1.5800819 -1.5800843z" fill-rule="evenodd"/><path stroke="#000000" stroke-width="1.0" stroke-linejoin="round" stroke-linecap="butt" d="m53.522278 6.8034844l0 0c0.8726578 0 1.5800858 0.7074275 1.5800858 1.5800843l0 6.3201466l0 0c0 0.41906452 -0.16647339 0.8209648 -0.46279907 1.1172876c-0.29632187 0.29632378 -0.6982231 0.46279716 -1.1172867 0.46279716l-15.768967 0c-0.87265396 0 -1.5800819 -0.70742893 -1.5800819 -1.5800848l0 -6.3201466c0 -0.8726568 0.707428 -1.5800843 1.5800819 -1.5800843z" fill-rule="evenodd"/></g></svg>