<svg version="1.1" viewBox="0.0 0.0 100.0 100.0" fill="none" stroke="none" stroke-linecap="square" stroke-miterlimit="10" xmlns:xlink="http://www.w3.org/1999/xlink" xmlns="http://www.w3.org/2000/svg"><clipPath id="p.0"><path d="m0 0l100.0 0l0 100.0l-100.0 0l0 -100.0z" clip-rule="nonzero"/></clipPath><g clip-path="url(#p.0)"><path fill="#000000" fill-opacity="0.0" d="m0 0l100.0 0l0 100.0l-100.0 0z" fill-rule="evenodd"/><path fill="#e2fc52" d="m1.2913386 50.0l0 0c0 -26.90105 21.807611 -48.70866 48.70866 -48.70866l0 0c12.918339 0 25.307579 5.1317906 34.442223 14.266437c9.134651 9.134645 14.266441 21.523886 14.266441 34.442223l0 0c0 26.901054 -21.80761 48.708664 -48.708664 48.708664l0 0c-26.90105 0 -48.70866 -21.80761 -48.70866 -48.708664z" fill-rule="evenodd"/><path stroke="#000000" stroke-width="1.0" stroke-linejoin="round" stroke-linecap="butt" d="m1.2913386 50.0l0 0c0 -26.90105 21.807611 -48.70866 48.70866 -48.70866l0 0c12.918339 0 25.307579 5.1317906 34.442223 14.266437c9.134651 9.134645 14.266441 21.523886 14.266441 34.442223l0 0c0 26.901054 -21.80761 48.708664 -48.708664 48.708664l0 0c-26.90105 0 -48.70866 -21.80761 -48.70866 -48.708664z" fill-rule="evenodd"/><path fill="#4774a4" d="m38.440945 30.797977l0 0c0 -2.128006 1.72509 -3.853096 3.853096 -3.853096l15.411919 0l0 0c1.021904 0 2.0019531 0.40595055 2.7245522 1.1285458c0.7225952 0.7225952 1.1285439 1.7026463 1.1285439 2.7245502l0 38.40405c0 2.1279984 -1.72509 3.8530884 -3.853096 3.8530884l-15.411919 0c-2.128006 0 -3.853096 -1.72509 -3.853096 -3.8530884z" fill-rule="evenodd"/><path stroke="#000000" stroke-width="1.0" stroke-linejoin="round" stroke-linecap="butt" d="m38.440945 30.797977l0 0c0 -2.128006 1.72509 -3.853096 3.853096 -3.853096l15.411919 0l0 0c1.021904 0 2.0019531 0.40595055 2.7245522 1.1285458c0.7225952 0.7225952 1.1285439 1.7026463 1.1285439 2.7245502l0 38.40405c0 2.1279984 -1.72509 3.8530884 -3.853096 3.8530884l-15.411919 0c-2.128006 0 -3.853096 -1.72509 -3.853096 -3.8530884z" fill-rule="evenodd"/><path fill="#4774a4" d="m71.7847 38.439632l0 0c2.128006 0 3.853096 1.72509 3.853096 3.853096l0 15.411919l0 0c0 1.021904 -0.40595245 2.0019531 -1.1285477 2.7245483c-0.7225952 0.722599 -1.7026443 1.1285477 -2.7245483 1.1285477l-43.569397 0c-2.128006 0 -3.853094 -1.72509 -3.853094 -3.853096l0 -15.411919c0 -2.128006 1.7250881 -3.853096 3.853094 -3.853096z" fill-rule="evenodd"/><path stroke="#000000" stroke-width="1.0" stroke-linejoin="round" stroke-linecap="butt" d="m71.7847 38.439632l0 0c2.128006 0 3.853096 1.72509 3.853096 3.853096l0 15.411919l0 0c0 1.021904 -0.40595245 2.0019531 -1.1285477 2.7245483c-0.7225952 0.722599 -1.7026443 1.1285477 -2.7245483 1.1285477l-43.569397 0c-2.128006 0 -3.853094 -1.72509 -3.853094 -3.853096l0 -15.411919c0 -2.128006 1.7250881 -3.853096 3.853094 -3.853096z" fill-rule="evenodd"/><path fill="#4774a4" d="m61.070866 47.858215l0 0c0 1.4437981 -1.1704292 2.6142273 -2.6142235 2.6142273l-16.913284 0c-0.6933327 0 -1.3582726 -0.27542877 -1.8485336 -0.76568985c-0.4902649 -0.4902649 -0.76568985 -1.155201 -0.76568985 -1.8485374l0 -10.456589c0 -1.4437981 1.1704292 -2.6142235 2.6142235 -2.6142235l16.913284 0c1.4437943 0 2.6142235 1.1704254 2.6142235 2.6142235z" fill-rule="evenodd"/><path fill="#4774a4" d="m61.559055 47.75343l0 0c0 0.13617706 -0.110393524 0.24657059 -0.24657059 0.24657059l-22.62497 0c-0.065395355 0 -0.1281128 -0.025978088 -0.17435074 -0.07221985c-0.04624176 -0.046237946 -0.07221985 -0.10895538 -0.07221985 -0.17435074l0 -15.191898c0 -0.13617706 0.110393524 -0.24657059 0.24657059 -0.24657059l22.62497 0c0.13617706 0 0.24657059 0.110393524 0.24657059 0.24657059z" fill-rule="evenodd"/><path stroke="#000000" stroke-width="1.0" stroke-linejoin="round" stroke-linecap="butt" d="m61.559055 47.75343l0 0c0 0.13617706 -0.110393524 0.24657059 -0.24657059 0.24657059l-22.62497 0c-0.065395355 0 -0.1281128 -0.025978088 -0.17435074 -0.07221985c-0.04624176 -0.046237946 -0.07221985 -0.10895538 -0.07221985 -0.17435074l0 -15.191898c0 -0.13617706 0.110393524 -0.24657059 0.24657059 -0.24657059l22.62497 0c0.13617706 0 0.24657059 0.110393524 0.24657059 0.24657059z" fill-rule="evenodd"/><path fill="#4774a4" d="m38.929134 32.12211l0 0c0 -1.6409435 1.330246 -2.9711895 2.9711876 -2.9711895l16.199356 0c0.78800964 0 1.5437431 0.31303406 2.1009483 0.87024117c0.5572052 0.5572052 0.87023926 1.3129387 0.87023926 2.1009483l0 11.884396c0 1.6409416 -1.330246 2.9711876 -2.9711876 2.9711876l-16.199356 0l0 0c-1.6409416 0 -2.9711876 -1.330246 -2.9711876 -2.9711876z" fill-rule="evenodd"/><path fill="#4774a4" d="m28.874016 40.574837l0 0c0 -0.9161453 0.7426815 -1.6588249 1.6588249 -1.6588249l15.202034 0c0.43994904 0 0.86187744 0.17476654 1.172966 0.48585892c0.31109238 0.31108856 0.48585892 0.73301697 0.48585892 1.172966l0 6.635105c0 0.9161415 -0.7426796 1.6588249 -1.6588249 1.6588249l-15.202034 0c-0.9161434 0 -1.6588249 -0.7426834 -1.6588249 -1.6588249z" fill-rule="evenodd"/><path fill="#4774a4" d="m38.43307 48.0l0 0c0 -1.02996826E-4 8.392334E-5 -1.8310547E-4 1.8310547E-4 -1.8310547E-4l22.141548 1.8310547E-4c4.9591064E-5 0 9.536743E-5 1.9073486E-5 1.296997E-4 5.340576E-5c3.4332275E-5 3.4332275E-5 5.722046E-5 8.392334E-5 5.722046E-5 1.296997E-4l-1.8692017E-4 16.251785c0 9.918213E-5 -8.010864E-5 1.8310547E-4 -1.8310547E-4 1.8310547E-4l-22.141548 -1.8310547E-4l0 0c-1.02996826E-4 0 -1.8310547E-4 -8.392334E-5 -1.8310547E-4 -1.8310547E-4z" fill-rule="evenodd"/><path stroke="#000000" stroke-width="1.0" stroke-linejoin="round" stroke-linecap="butt" d="m38.43307 48.0l0 0c0 -1.02996826E-4 8.392334E-5 -1.8310547E-4 1.8310547E-4 -1.8310547E-4l22.141548 1.8310547E-4c4.9591064E-5 0 9.536743E-5 1.9073486E-5 1.296997E-4 5.340576E-5c3.4332275E-5 3.4332275E-5 5.722046E-5 8.392334E-5 5.722046E-5 1.296997E-4l-1.8692017E-4 16.251785c0 9.918213E-5 -8.010864E-5 1.8310547E-4 -1.8310547E-4 1.8310547E-4l-22.141548 -1.8310547E-4l0 0c-1.02996826E-4 0 -1.8310547E-4 -8.392334E-5 -1.8310547E-4 -1.8310547E-4z" fill-rule="evenodd"/><path fill="#000000" d="m40.929134 30.425198l0 0c0 -1.0436878 0.84607697 -1.8897648 1.8897629 -1.8897648l0 0c0.5011978 0 0.9818649 0.1991005 1.3362656 0.5534992c0.35440063 0.35439873 0.5534973 0.83506775 0.5534973 1.3362656l0 0c0 1.0436878 -0.84607315 1.8897629 -1.8897629 1.8897629l0 0c-1.0436859 0 -1.8897629 -0.84607506 -1.8897629 -1.8897629z" fill-rule="evenodd"/><path fill="#000000" d="m55.29134 68.95276l0 0c0 -1.0436935 0.84607315 -1.8897629 1.8897629 -1.8897629l0 0c0.5011978 0 0.9818649 0.19909668 1.3362656 0.5534973c0.35439682 0.35440063 0.5534973 0.83506775 0.5534973 1.3362656l0 0c0 1.0436859 -0.84607697 1.8897629 -1.8897629 1.8897629l0 0c-1.0436897 0 -1.8897629 -0.84607697 -1.8897629 -1.8897629z" fill-rule="evenodd"/><path fill="#4774a4" d="m61.062992 64.091805l0 0c0 1.6409378 -1.330246 2.9711914 -2.9711876 2.9711914l-16.199356 0c-0.78800964 0 -1.5437431 -0.3130417 -2.1009483 -0.8702469c-0.5572052 -0.5572052 -0.87023926 -1.3129349 -0.87023926 -2.1009445l0 -11.884396c0 -1.6409416 1.330246 -2.9711876 2.9711876 -2.9711876l16.199356 0l0 0c1.6409416 0 2.9711876 1.330246 2.9711876 2.9711876z" fill-rule="evenodd"/><path fill="#4774a4" d="m74.249344 58.968464l0 0c0 1.1567764 -0.93775177 2.0945282 -2.0945282 2.0945282l-17.952675 0c-0.55550385 0 -1.0882568 -0.2206726 -1.4810562 -0.613472c-0.39279938 -0.3928032 -0.613472 -0.92555237 -0.613472 -1.4810562l0 -8.377872c0 -1.1567764 0.93775177 -2.0945282 2.0945282 -2.0945282l17.952675 0c1.1567764 0 2.0945282 0.93775177 2.0945282 2.0945282z" fill-rule="evenodd"/><path fill="#000000" d="m38.440945 37.49738l0 0c0 -0.15655518 0.12691498 -0.28347015 0.28347015 -0.28347015l8.188965 0c0.07518005 0 0.14728165 0.029865265 0.20044327 0.083026886c0.05316162 0.05316162 0.083026886 0.12526321 0.083026886 0.20044327l0 1.1338501c0 0.15655518 -0.12691498 0.28347015 -0.28347015 0.28347015l-8.188965 0l0 0c-0.15655518 0 -0.28347015 -0.12691498 -0.28347015 -0.28347015z" fill-rule="evenodd"/><path fill="#000000" d="m52.80315 61.346462l0 0c0 -0.15655518 0.12691498 -0.28347015 0.28347015 -0.28347015l8.188965 0c0.07518005 0 0.14728165 0.029865265 0.20044327 0.083026886c0.05316162 0.05316162 0.083026886 0.12526321 0.083026886 0.20044327l0 1.1338463c0 0.15655518 -0.12691498 0.28347015 -0.28347015 0.28347015l-8.188965 0l0 0c-0.15655518 0 -0.28347015 -0.12691498 -0.28347015 -0.28347015z" fill-rule="evenodd"/></g></svg>