<svg width="32" height="32" viewBox="0 0 32 32" fill="none" xmlns="http://www.w3.org/2000/svg">
<path d="M0 2.47553C5.55602 0.211288 12.0285 2.57582 14.4566 7.75685L22.4579 24.8299C23.672 27.4204 22.4042 30.4382 19.6262 31.5703C16.8482 32.7025 13.6119 31.5202 12.3979 28.9297L0 2.47553Z" fill="white"/>
<path d="M17.0311 7.1701C15.817 4.57958 17.0848 1.56178 19.8629 0.429661C22.6409 -0.702461 25.8771 0.479802 27.0911 3.07032L31.9993 13.5432L30.0697 14.3296C25.5794 16.1595 20.3484 14.2486 18.386 10.0613L17.0311 7.1701Z" fill="white"/>
<path d="M23.5293 1.5752C24.836 1.7772 25.3666 2.32244 25.9943 3.97834" stroke="black" stroke-opacity="0.1" stroke-linecap="round" stroke-linejoin="round"/>
<path d="M11.3174 22.9945C12.6213 25.5456 13.1908 27.0306 15.127 29.3681C15.9869 30.2174 16.5251 30.4306 17.592 30.3084" stroke="black" stroke-opacity="0.06" stroke-width="2" stroke-linecap="round" stroke-linejoin="round"/>
<path d="M26.4433 4.50069C26.4433 4.6161 26.343 4.70966 26.2192 4.70966C26.0954 4.70966 25.9951 4.6161 25.9951 4.50069C25.9951 4.38528 26.0954 4.29172 26.2192 4.29172C26.343 4.29172 26.4433 4.38528 26.4433 4.50069Z" fill="black" fill-opacity="0.1"/>
</svg>
