<svg width="32" height="32" viewBox="0 0 32 32" fill="none" xmlns="http://www.w3.org/2000/svg">
<path d="M0 2.47553C5.55602 0.211288 12.0285 2.57582 14.4566 7.75685L22.4579 24.8299C23.672 27.4204 22.4042 30.4382 19.6262 31.5703C16.8482 32.7025 13.6119 31.5202 12.3979 28.9297L0 2.47553Z" fill="#C9C9C9"/>
<path d="M17.0316 7.1701C15.8175 4.57958 17.0853 1.56178 19.8633 0.429661C22.6414 -0.702461 25.8776 0.479802 27.0916 3.07032L31.9998 13.5432L30.0702 14.3296C25.5799 16.1595 20.3489 14.2486 18.3865 10.0613L17.0316 7.1701Z" fill="#C9C9C9"/>
<path d="M26.4433 4.50047C26.4433 4.61588 26.343 4.70944 26.2192 4.70944C26.0954 4.70944 25.9951 4.61588 25.9951 4.50047C25.9951 4.38506 26.0954 4.2915 26.2192 4.2915C26.343 4.2915 26.4433 4.38506 26.4433 4.50047Z" fill="black" fill-opacity="0.1"/>
</svg>
