<svg width="103" height="103" viewBox="0 0 103 103" fill="none" xmlns="http://www.w3.org/2000/svg">
<mask id="mask0" mask-type="alpha" maskUnits="userSpaceOnUse" x="0" y="0" width="103" height="103">
<path d="M2.34314 57.0003C-0.78105 53.8761 -0.781047 48.8107 2.34315 45.6865L45.6865 2.34314C48.8107 -0.78105 53.8761 -0.781047 57.0003 2.34315L100.344 45.6865C103.468 48.8107 103.468 53.8761 100.344 57.0003L57.0003 100.344C53.8761 103.468 48.8107 103.468 45.6865 100.344L2.34314 57.0003Z" fill="#F05133"/>
</mask>
<g mask="url(#mask0)">
<path d="M2.34314 57.0003C-0.78105 53.8761 -0.781047 48.8107 2.34315 45.6865L45.6865 2.34314C48.8107 -0.78105 53.8761 -0.781047 57.0003 2.34315L100.344 45.6865C103.468 48.8107 103.468 53.8761 100.344 57.0003L57.0003 100.344C53.8761 103.468 48.8107 103.468 45.6865 100.344L2.34314 57.0003Z" fill="#F05133"/>
<rect x="27" y="13.2466" width="8.83392" height="53.8556" rx="4.41696" transform="rotate(-45 27 13.2466)" fill="white"/>
<rect x="47.3179" y="30.4097" width="8.83392" height="41.5194" rx="4.41696" fill="white"/>
<rect x="43.3428" y="63.0952" width="17.2261" height="17.2261" rx="8.61307" fill="white"/>
<rect x="43.3428" y="23.7842" width="17.2261" height="17.2261" rx="8.61307" fill="white"/>
<rect x="62.7773" y="42.3354" width="17.2261" height="17.2261" rx="8.61307" fill="white"/>
</g>
</svg>
