<svg width="120" height="121" viewBox="0 0 120 121" fill="none" xmlns="http://www.w3.org/2000/svg">
<rect y="0.998413" width="120" height="120" fill="#F7DF1E"/>
<path d="M65.28 56.1984H54.08V94.7584C54.08 98.6784 52.56 101.558 48.16 101.478C43.76 101.398 42.88 98.9184 40.72 95.7184L31.68 101.318C35.4147 108.597 40.16 111.558 48.72 111.558C57.28 111.558 65.6 106.918 65.28 95.3984V56.1984Z" fill="black"/>
<path d="M80.56 94.8384L71.44 100.118C74.32 106.118 81.2 111.638 91.76 111.638C104 111.638 110.64 104.918 110.64 95.9584C110.64 76.2784 85.84 79.8784 85.84 70.1184C85.84 67.7184 87.92 65.2384 91.36 65.2384C94.9787 65.4855 96.4945 66.7006 98.64 70.0384L107.28 64.4384C104.24 59.8784 101.2 55.4784 91.28 55.4784C82.64 55.4784 75.4188 60.0627 74.8 70.4384C74.9037 89.9525 99.44 86.8384 99.44 95.9584C99.44 97.6384 98.24 101.558 91.6 101.558C87.28 101.558 84.24 100.038 80.56 94.8384Z" fill="black"/>
</svg>
