<svg width="113" height="113" viewBox="0 0 113 113" fill="none" xmlns="http://www.w3.org/2000/svg">
<path fill-rule="evenodd" clip-rule="evenodd" d="M29.2504 24.9338H56.9436V29.5087H14.0639C-4.68794 29.5087 -4.68797 85.3222 14.0639 85.3222L24.7916 85.3211V70.2241C24.7916 60.6168 30.1516 55.128 39.5315 55.128H67.6636C73.9168 55.128 83.7435 49.638 83.7435 43.2323V32.7111V10.2942C83.7435 -3.43135 29.2504 -3.43099 29.2504 10.2942V24.9338ZM40.8697 18.5286C43.83 18.5286 46.2297 16.0707 46.2297 13.0388C46.2297 10.0068 43.83 7.54892 40.8697 7.54892C37.9095 7.54892 35.5098 10.0068 35.5098 13.0388C35.5098 16.0707 37.9095 18.5286 40.8697 18.5286Z" fill="#407EAF"/>
<path fill-rule="evenodd" clip-rule="evenodd" d="M83.7496 88.0663L56.0564 88.0663V83.4914L98.9361 83.4914C117.688 83.4914 117.688 27.678 98.9361 27.678L88.2084 27.679V42.7761C88.2084 52.3833 82.8484 57.8721 73.4685 57.8721L45.3364 57.8721C39.0832 57.8721 29.2565 63.3621 29.2565 69.7678L29.2565 80.289L29.2565 102.706C29.2565 116.431 83.7496 116.431 83.7496 102.706L83.7496 88.0663ZM72.1363 106.366C75.0966 106.366 77.4963 103.908 77.4963 100.876C77.4963 97.844 75.0966 95.3861 72.1363 95.3861C69.1761 95.3861 66.7764 97.844 66.7764 100.876C66.7764 103.908 69.1761 106.366 72.1363 106.366Z" fill="#FFDB51"/>
</svg>
