<svg width="140" height="126" viewBox="0 0 140 126" fill="none" xmlns="http://www.w3.org/2000/svg">
<path d="M91.715 50.4265C101.152 66.7714 106.846 82.9976 108.539 95.914C109.387 102.382 109.204 107.815 108.139 111.947C107.079 116.061 105.245 118.565 102.995 119.864C100.746 121.163 97.6595 121.499 93.5671 120.36C89.4564 119.216 84.6596 116.658 79.4821 112.69C69.1425 104.766 57.9375 91.7212 48.5007 75.3762C39.064 59.0313 33.3696 42.8052 31.6768 29.8888C30.8292 23.4209 31.0121 17.9876 32.0767 13.8557C33.1366 9.74213 34.971 7.23754 37.2205 5.9388C39.47 4.64006 42.5562 4.30376 46.6486 5.44261C50.7593 6.58657 55.5561 9.14482 60.7336 13.1128C71.0732 21.037 82.2782 34.0816 91.715 50.4265Z" stroke="#82D7FF" stroke-width="8"/>
<path d="M69.7747 38.1055C88.6482 38.1055 105.548 41.287 117.58 46.2793C123.605 48.7791 128.219 51.6542 131.265 54.6422C134.298 57.6168 135.549 60.4577 135.549 63.0552C135.549 65.6527 134.298 68.4936 131.265 71.4683C128.219 74.4563 123.605 77.3313 117.58 79.8312C105.548 84.8234 88.6482 88.005 69.7747 88.005C50.9012 88.005 34.0018 84.8234 21.9694 79.8312C15.9443 77.3313 11.3304 74.4563 8.28433 71.4683C5.25186 68.4936 4 65.6527 4 63.0552C4 60.4577 5.25186 57.6168 8.28433 54.6422C11.3304 51.6542 15.9443 48.7791 21.9694 46.2793C34.0018 41.287 50.9012 38.1055 69.7747 38.1055Z" stroke="#82D7FF" stroke-width="8"/>
<path d="M91.5655 75.3762C82.1288 91.7212 70.9238 104.766 60.5842 112.69C55.4067 116.658 50.6099 119.216 46.4991 120.36C42.4068 121.499 39.3206 121.163 37.0711 119.864C34.8216 118.565 32.9872 116.061 31.9273 111.947C30.8627 107.815 30.6798 102.382 31.5274 95.914C33.2201 82.9976 38.9146 66.7714 48.3513 50.4265C57.788 34.0816 68.9931 21.037 79.3327 13.1128C84.5102 9.14482 89.307 6.58657 93.4177 5.44261C97.5101 4.30376 100.596 4.64006 102.846 5.9388C105.095 7.23754 106.93 9.74213 107.99 13.8557C109.054 17.9876 109.237 23.4209 108.389 29.8888C106.697 42.8052 101.002 59.0313 91.5655 75.3762Z" stroke="#82D7FF" stroke-width="8"/>
<circle cx="70.1739" cy="62.813" r="12.7588" fill="#82D7FF"/>
</svg>
