<svg width="362" height="38" viewBox="0 0 362 38" fill="none" xmlns="http://www.w3.org/2000/svg">
<path d="M5.17188 11.5312H3.28125V2.39844L0.492188 3.35156V1.75L4.92969 0.117188H5.17188V11.5312Z" fill="#FED356" fill-opacity="0.05"/>
<path d="M25.4191 6.74219C25.4191 8.3776 25.1118 9.61198 24.4972 10.4453C23.8878 11.2734 22.9581 11.6875 21.7081 11.6875C20.479 11.6875 19.5519 11.2839 18.9269 10.4766C18.3071 9.66406 17.9894 8.46354 17.9738 6.875V4.90625C17.9738 3.27083 18.2784 2.04427 18.8878 1.22656C19.5024 0.408854 20.4373 0 21.6925 0C22.9373 0 23.8644 0.398438 24.4738 1.19531C25.0883 1.99219 25.4034 3.1849 25.4191 4.77344V6.74219ZM23.5206 4.61719C23.5206 3.54948 23.3748 2.76823 23.0831 2.27344C22.7915 1.77344 22.3279 1.52344 21.6925 1.52344C21.0727 1.52344 20.617 1.76042 20.3253 2.23438C20.0336 2.70312 19.88 3.4375 19.8644 4.4375V7.01562C19.8644 8.07812 20.0128 8.86979 20.3097 9.39062C20.6066 9.91146 21.0727 10.1719 21.7081 10.1719C22.3175 10.1719 22.768 9.93229 23.0597 9.45312C23.3514 8.96875 23.505 8.21354 23.5206 7.1875V4.61719Z" fill="#FED356" fill-opacity="0.05"/>
<path d="M41.1194 11.5312H39.2288V2.39844L36.4397 3.35156V1.75L40.8772 0.117188H41.1194V11.5312Z" fill="#FED356" fill-opacity="0.05"/>
<path d="M61.3666 6.74219C61.3666 8.3776 61.0593 9.61198 60.4447 10.4453C59.8353 11.2734 58.9056 11.6875 57.6556 11.6875C56.4265 11.6875 55.4994 11.2839 54.8744 10.4766C54.2546 9.66406 53.9369 8.46354 53.9212 6.875V4.90625C53.9212 3.27083 54.2259 2.04427 54.8353 1.22656C55.4499 0.408854 56.3848 0 57.64 0C58.8848 0 59.8119 0.398438 60.4212 1.19531C61.0358 1.99219 61.3509 3.1849 61.3666 4.77344V6.74219ZM59.4681 4.61719C59.4681 3.54948 59.3223 2.76823 59.0306 2.27344C58.739 1.77344 58.2754 1.52344 57.64 1.52344C57.0202 1.52344 56.5645 1.76042 56.2728 2.23438C55.9811 2.70312 55.8275 3.4375 55.8119 4.4375V7.01562C55.8119 8.07812 55.9603 8.86979 56.2572 9.39062C56.5541 9.91146 57.0202 10.1719 57.6556 10.1719C58.265 10.1719 58.7155 9.93229 59.0072 9.45312C59.2989 8.96875 59.4525 8.21354 59.4681 7.1875V4.61719Z" fill="#FED356" fill-opacity="0.05"/>
<path d="M77.0669 11.5312H75.1763V2.39844L72.3872 3.35156V1.75L76.8247 0.117188H77.0669V11.5312Z" fill="#FED356" fill-opacity="0.05"/>
<path d="M97.3141 6.74219C97.3141 8.3776 97.0068 9.61198 96.3922 10.4453C95.7828 11.2734 94.8531 11.6875 93.6031 11.6875C92.374 11.6875 91.4469 11.2839 90.8219 10.4766C90.2021 9.66406 89.8844 8.46354 89.8688 6.875V4.90625C89.8688 3.27083 90.1734 2.04427 90.7828 1.22656C91.3974 0.408854 92.3323 0 93.5875 0C94.8323 0 95.7594 0.398438 96.3688 1.19531C96.9833 1.99219 97.2984 3.1849 97.3141 4.77344V6.74219ZM95.4156 4.61719C95.4156 3.54948 95.2698 2.76823 94.9781 2.27344C94.6865 1.77344 94.2229 1.52344 93.5875 1.52344C92.9677 1.52344 92.512 1.76042 92.2203 2.23438C91.9286 2.70312 91.775 3.4375 91.7594 4.4375V7.01562C91.7594 8.07812 91.9078 8.86979 92.2047 9.39062C92.5016 9.91146 92.9677 10.1719 93.6031 10.1719C94.2125 10.1719 94.663 9.93229 94.9547 9.45312C95.2464 8.96875 95.4 8.21354 95.4156 7.1875V4.61719Z" fill="#FED356" fill-opacity="0.05"/>
<path d="M113.014 11.5312H111.124V2.39844L108.335 3.35156V1.75L112.772 0.117188H113.014V11.5312Z" fill="#FED356" fill-opacity="0.05"/>
<path d="M133.262 6.74219C133.262 8.3776 132.954 9.61198 132.34 10.4453C131.73 11.2734 130.801 11.6875 129.551 11.6875C128.321 11.6875 127.394 11.2839 126.769 10.4766C126.15 9.66406 125.832 8.46354 125.816 6.875V4.90625C125.816 3.27083 126.121 2.04427 126.73 1.22656C127.345 0.408854 128.28 0 129.535 0C130.78 0 131.707 0.398438 132.316 1.19531C132.931 1.99219 133.246 3.1849 133.262 4.77344V6.74219ZM131.363 4.61719C131.363 3.54948 131.217 2.76823 130.926 2.27344C130.634 1.77344 130.17 1.52344 129.535 1.52344C128.915 1.52344 128.459 1.76042 128.168 2.23438C127.876 2.70312 127.723 3.4375 127.707 4.4375V7.01562C127.707 8.07812 127.855 8.86979 128.152 9.39062C128.449 9.91146 128.915 10.1719 129.551 10.1719C130.16 10.1719 130.611 9.93229 130.902 9.45312C131.194 8.96875 131.348 8.21354 131.363 7.1875V4.61719Z" fill="#FED356" fill-opacity="0.05"/>
<path d="M148.962 11.5312H147.071V2.39844L144.282 3.35156V1.75L148.72 0.117188H148.962V11.5312Z" fill="#FED356" fill-opacity="0.05"/>
<path d="M169.209 6.74219C169.209 8.3776 168.902 9.61198 168.287 10.4453C167.678 11.2734 166.748 11.6875 165.498 11.6875C164.269 11.6875 163.342 11.2839 162.717 10.4766C162.097 9.66406 161.779 8.46354 161.764 6.875V4.90625C161.764 3.27083 162.068 2.04427 162.678 1.22656C163.292 0.408854 164.227 0 165.482 0C166.727 0 167.654 0.398438 168.264 1.19531C168.878 1.99219 169.193 3.1849 169.209 4.77344V6.74219ZM167.311 4.61719C167.311 3.54948 167.165 2.76823 166.873 2.27344C166.581 1.77344 166.118 1.52344 165.482 1.52344C164.863 1.52344 164.407 1.76042 164.115 2.23438C163.824 2.70312 163.67 3.4375 163.654 4.4375V7.01562C163.654 8.07812 163.803 8.86979 164.1 9.39062C164.397 9.91146 164.863 10.1719 165.498 10.1719C166.107 10.1719 166.558 9.93229 166.85 9.45312C167.141 8.96875 167.295 8.21354 167.311 7.1875V4.61719Z" fill="#FED356" fill-opacity="0.05"/>
<path d="M184.909 11.5312H183.019V2.39844L180.23 3.35156V1.75L184.667 0.117188H184.909V11.5312Z" fill="#FED356" fill-opacity="0.05"/>
<path d="M205.157 6.74219C205.157 8.3776 204.849 9.61198 204.235 10.4453C203.625 11.2734 202.696 11.6875 201.446 11.6875C200.216 11.6875 199.289 11.2839 198.664 10.4766C198.045 9.66406 197.727 8.46354 197.711 6.875V4.90625C197.711 3.27083 198.016 2.04427 198.625 1.22656C199.24 0.408854 200.175 0 201.43 0C202.675 0 203.602 0.398438 204.211 1.19531C204.826 1.99219 205.141 3.1849 205.157 4.77344V6.74219ZM203.258 4.61719C203.258 3.54948 203.112 2.76823 202.821 2.27344C202.529 1.77344 202.065 1.52344 201.43 1.52344C200.81 1.52344 200.354 1.76042 200.063 2.23438C199.771 2.70312 199.618 3.4375 199.602 4.4375V7.01562C199.602 8.07812 199.75 8.86979 200.047 9.39062C200.344 9.91146 200.81 10.1719 201.446 10.1719C202.055 10.1719 202.506 9.93229 202.797 9.45312C203.089 8.96875 203.243 8.21354 203.258 7.1875V4.61719Z" fill="#FED356" fill-opacity="0.05"/>
<path d="M220.857 11.5312H218.966V2.39844L216.177 3.35156V1.75L220.615 0.117188H220.857V11.5312Z" fill="#FED356" fill-opacity="0.05"/>
<path d="M241.104 6.74219C241.104 8.3776 240.797 9.61198 240.182 10.4453C239.573 11.2734 238.643 11.6875 237.393 11.6875C236.164 11.6875 235.237 11.2839 234.612 10.4766C233.992 9.66406 233.674 8.46354 233.659 6.875V4.90625C233.659 3.27083 233.963 2.04427 234.573 1.22656C235.187 0.408854 236.122 0 237.378 0C238.622 0 239.549 0.398438 240.159 1.19531C240.773 1.99219 241.088 3.1849 241.104 4.77344V6.74219ZM239.206 4.61719C239.206 3.54948 239.06 2.76823 238.768 2.27344C238.476 1.77344 238.013 1.52344 237.378 1.52344C236.758 1.52344 236.302 1.76042 236.01 2.23438C235.719 2.70312 235.565 3.4375 235.549 4.4375V7.01562C235.549 8.07812 235.698 8.86979 235.995 9.39062C236.292 9.91146 236.758 10.1719 237.393 10.1719C238.003 10.1719 238.453 9.93229 238.745 9.45312C239.036 8.96875 239.19 8.21354 239.206 7.1875V4.61719Z" fill="#FED356" fill-opacity="0.05"/>
<path d="M256.804 11.5312H254.914V2.39844L252.125 3.35156V1.75L256.562 0.117188H256.804V11.5312Z" fill="#FED356" fill-opacity="0.05"/>
<path d="M277.052 6.74219C277.052 8.3776 276.744 9.61198 276.13 10.4453C275.52 11.2734 274.591 11.6875 273.341 11.6875C272.111 11.6875 271.184 11.2839 270.559 10.4766C269.94 9.66406 269.622 8.46354 269.606 6.875V4.90625C269.606 3.27083 269.911 2.04427 270.52 1.22656C271.135 0.408854 272.07 0 273.325 0C274.57 0 275.497 0.398438 276.106 1.19531C276.721 1.99219 277.036 3.1849 277.052 4.77344V6.74219ZM275.153 4.61719C275.153 3.54948 275.007 2.76823 274.716 2.27344C274.424 1.77344 273.96 1.52344 273.325 1.52344C272.705 1.52344 272.249 1.76042 271.958 2.23438C271.666 2.70312 271.513 3.4375 271.497 4.4375V7.01562C271.497 8.07812 271.645 8.86979 271.942 9.39062C272.239 9.91146 272.705 10.1719 273.341 10.1719C273.95 10.1719 274.401 9.93229 274.692 9.45312C274.984 8.96875 275.138 8.21354 275.153 7.1875V4.61719Z" fill="#FED356" fill-opacity="0.05"/>
<path d="M292.752 11.5312H290.861V2.39844L288.072 3.35156V1.75L292.51 0.117188H292.752V11.5312Z" fill="#FED356" fill-opacity="0.05"/>
<path d="M312.999 6.74219C312.999 8.3776 312.692 9.61198 312.077 10.4453C311.468 11.2734 310.538 11.6875 309.288 11.6875C308.059 11.6875 307.132 11.2839 306.507 10.4766C305.887 9.66406 305.569 8.46354 305.554 6.875V4.90625C305.554 3.27083 305.858 2.04427 306.468 1.22656C307.082 0.408854 308.017 0 309.272 0C310.517 0 311.444 0.398438 312.054 1.19531C312.668 1.99219 312.983 3.1849 312.999 4.77344V6.74219ZM311.101 4.61719C311.101 3.54948 310.955 2.76823 310.663 2.27344C310.371 1.77344 309.908 1.52344 309.272 1.52344C308.653 1.52344 308.197 1.76042 307.905 2.23438C307.614 2.70312 307.46 3.4375 307.444 4.4375V7.01562C307.444 8.07812 307.593 8.86979 307.89 9.39062C308.187 9.91146 308.653 10.1719 309.288 10.1719C309.897 10.1719 310.348 9.93229 310.64 9.45312C310.931 8.96875 311.085 8.21354 311.101 7.1875V4.61719Z" fill="#FED356" fill-opacity="0.05"/>
<path d="M328.699 11.5312H326.809V2.39844L324.02 3.35156V1.75L328.457 0.117188H328.699V11.5312Z" fill="#FED356" fill-opacity="0.05"/>
<path d="M348.947 6.74219C348.947 8.3776 348.639 9.61198 348.025 10.4453C347.415 11.2734 346.486 11.6875 345.236 11.6875C344.006 11.6875 343.079 11.2839 342.454 10.4766C341.835 9.66406 341.517 8.46354 341.501 6.875V4.90625C341.501 3.27083 341.806 2.04427 342.415 1.22656C343.03 0.408854 343.965 0 345.22 0C346.465 0 347.392 0.398438 348.001 1.19531C348.616 1.99219 348.931 3.1849 348.947 4.77344V6.74219ZM347.048 4.61719C347.048 3.54948 346.902 2.76823 346.611 2.27344C346.319 1.77344 345.855 1.52344 345.22 1.52344C344.6 1.52344 344.144 1.76042 343.853 2.23438C343.561 2.70312 343.407 3.4375 343.392 4.4375V7.01562C343.392 8.07812 343.54 8.86979 343.837 9.39062C344.134 9.91146 344.6 10.1719 345.236 10.1719C345.845 10.1719 346.295 9.93229 346.587 9.45312C346.879 8.96875 347.032 8.21354 347.048 7.1875V4.61719Z" fill="#FED356" fill-opacity="0.05"/>
<path d="M7.44531 25.7422C7.44531 27.3776 7.13802 28.612 6.52344 29.4453C5.91406 30.2734 4.98438 30.6875 3.73438 30.6875C2.50521 30.6875 1.57812 30.2839 0.953125 29.4766C0.333333 28.6641 0.015625 27.4635 0 25.875V23.9062C0 22.2708 0.304688 21.0443 0.914062 20.2266C1.52865 19.4089 2.46354 19 3.71875 19C4.96354 19 5.89062 19.3984 6.5 20.1953C7.11458 20.9922 7.42969 22.1849 7.44531 23.7734V25.7422ZM5.54688 23.6172C5.54688 22.5495 5.40104 21.7682 5.10938 21.2734C4.81771 20.7734 4.35417 20.5234 3.71875 20.5234C3.09896 20.5234 2.64323 20.7604 2.35156 21.2344C2.0599 21.7031 1.90625 22.4375 1.89062 23.4375V26.0156C1.89062 27.0781 2.03906 27.8698 2.33594 28.3906C2.63281 28.9115 3.09896 29.1719 3.73438 29.1719C4.34375 29.1719 4.79427 28.9323 5.08594 28.4531C5.3776 27.9688 5.53125 27.2135 5.54688 26.1875V23.6172Z" fill="#FED356" fill-opacity="0.05"/>
<path d="M23.1456 30.5312H21.255V21.3984L18.4659 22.3516V20.75L22.9034 19.1172H23.1456V30.5312Z" fill="#FED356" fill-opacity="0.05"/>
<path d="M43.3928 25.7422C43.3928 27.3776 43.0855 28.612 42.4709 29.4453C41.8616 30.2734 40.9319 30.6875 39.6819 30.6875C38.4527 30.6875 37.5256 30.2839 36.9006 29.4766C36.2808 28.6641 35.9631 27.4635 35.9475 25.875V23.9062C35.9475 22.2708 36.2522 21.0443 36.8616 20.2266C37.4761 19.4089 38.411 19 39.6663 19C40.911 19 41.8381 19.3984 42.4475 20.1953C43.0621 20.9922 43.3772 22.1849 43.3928 23.7734V25.7422ZM41.4944 23.6172C41.4944 22.5495 41.3485 21.7682 41.0569 21.2734C40.7652 20.7734 40.3017 20.5234 39.6663 20.5234C39.0465 20.5234 38.5907 20.7604 38.2991 21.2344C38.0074 21.7031 37.8538 22.4375 37.8381 23.4375V26.0156C37.8381 27.0781 37.9866 27.8698 38.2834 28.3906C38.5803 28.9115 39.0465 29.1719 39.6819 29.1719C40.2913 29.1719 40.7418 28.9323 41.0334 28.4531C41.3251 27.9688 41.4788 27.2135 41.4944 26.1875V23.6172Z" fill="#FED356" fill-opacity="0.05"/>
<path d="M59.0931 30.5312H57.2025V21.3984L54.4134 22.3516V20.75L58.8509 19.1172H59.0931V30.5312Z" fill="#FED356" fill-opacity="0.05"/>
<path d="M79.3403 25.7422C79.3403 27.3776 79.033 28.612 78.4184 29.4453C77.8091 30.2734 76.8794 30.6875 75.6294 30.6875C74.4002 30.6875 73.4731 30.2839 72.8481 29.4766C72.2283 28.6641 71.9106 27.4635 71.895 25.875V23.9062C71.895 22.2708 72.1997 21.0443 72.8091 20.2266C73.4237 19.4089 74.3585 19 75.6138 19C76.8585 19 77.7856 19.3984 78.395 20.1953C79.0096 20.9922 79.3247 22.1849 79.3403 23.7734V25.7422ZM77.4419 23.6172C77.4419 22.5495 77.296 21.7682 77.0044 21.2734C76.7127 20.7734 76.2492 20.5234 75.6138 20.5234C74.994 20.5234 74.5382 20.7604 74.2466 21.2344C73.9549 21.7031 73.8013 22.4375 73.7856 23.4375V26.0156C73.7856 27.0781 73.9341 27.8698 74.2309 28.3906C74.5278 28.9115 74.994 29.1719 75.6294 29.1719C76.2388 29.1719 76.6893 28.9323 76.9809 28.4531C77.2726 27.9688 77.4263 27.2135 77.4419 26.1875V23.6172Z" fill="#FED356" fill-opacity="0.05"/>
<path d="M95.0406 30.5312H93.15V21.3984L90.3609 22.3516V20.75L94.7984 19.1172H95.0406V30.5312Z" fill="#FED356" fill-opacity="0.05"/>
<path d="M115.288 25.7422C115.288 27.3776 114.981 28.612 114.366 29.4453C113.757 30.2734 112.827 30.6875 111.577 30.6875C110.348 30.6875 109.421 30.2839 108.796 29.4766C108.176 28.6641 107.858 27.4635 107.842 25.875V23.9062C107.842 22.2708 108.147 21.0443 108.757 20.2266C109.371 19.4089 110.306 19 111.561 19C112.806 19 113.733 19.3984 114.342 20.1953C114.957 20.9922 115.272 22.1849 115.288 23.7734V25.7422ZM113.389 23.6172C113.389 22.5495 113.244 21.7682 112.952 21.2734C112.66 20.7734 112.197 20.5234 111.561 20.5234C110.941 20.5234 110.486 20.7604 110.194 21.2344C109.902 21.7031 109.749 22.4375 109.733 23.4375V26.0156C109.733 27.0781 109.882 27.8698 110.178 28.3906C110.475 28.9115 110.941 29.1719 111.577 29.1719C112.186 29.1719 112.637 28.9323 112.928 28.4531C113.22 27.9688 113.374 27.2135 113.389 26.1875V23.6172Z" fill="#FED356" fill-opacity="0.05"/>
<path d="M130.988 30.5312H129.098V21.3984L126.308 22.3516V20.75L130.746 19.1172H130.988V30.5312Z" fill="#FED356" fill-opacity="0.05"/>
<path d="M151.235 25.7422C151.235 27.3776 150.928 28.612 150.313 29.4453C149.704 30.2734 148.774 30.6875 147.524 30.6875C146.295 30.6875 145.368 30.2839 144.743 29.4766C144.123 28.6641 143.806 27.4635 143.79 25.875V23.9062C143.79 22.2708 144.095 21.0443 144.704 20.2266C145.319 19.4089 146.254 19 147.509 19C148.754 19 149.681 19.3984 150.29 20.1953C150.905 20.9922 151.22 22.1849 151.235 23.7734V25.7422ZM149.337 23.6172C149.337 22.5495 149.191 21.7682 148.899 21.2734C148.608 20.7734 148.144 20.5234 147.509 20.5234C146.889 20.5234 146.433 20.7604 146.142 21.2344C145.85 21.7031 145.696 22.4375 145.681 23.4375V26.0156C145.681 27.0781 145.829 27.8698 146.126 28.3906C146.423 28.9115 146.889 29.1719 147.524 29.1719C148.134 29.1719 148.584 28.9323 148.876 28.4531C149.168 27.9688 149.321 27.2135 149.337 26.1875V23.6172Z" fill="#FED356" fill-opacity="0.05"/>
<path d="M166.936 30.5312H165.045V21.3984L162.256 22.3516V20.75L166.693 19.1172H166.936V30.5312Z" fill="#FED356" fill-opacity="0.05"/>
<path d="M187.183 25.7422C187.183 27.3776 186.876 28.612 186.261 29.4453C185.652 30.2734 184.722 30.6875 183.472 30.6875C182.243 30.6875 181.316 30.2839 180.691 29.4766C180.071 28.6641 179.753 27.4635 179.738 25.875V23.9062C179.738 22.2708 180.042 21.0443 180.652 20.2266C181.266 19.4089 182.201 19 183.456 19C184.701 19 185.628 19.3984 186.238 20.1953C186.852 20.9922 187.167 22.1849 187.183 23.7734V25.7422ZM185.284 23.6172C185.284 22.5495 185.139 21.7682 184.847 21.2734C184.555 20.7734 184.092 20.5234 183.456 20.5234C182.836 20.5234 182.381 20.7604 182.089 21.2344C181.797 21.7031 181.644 22.4375 181.628 23.4375V26.0156C181.628 27.0781 181.777 27.8698 182.073 28.3906C182.37 28.9115 182.836 29.1719 183.472 29.1719C184.081 29.1719 184.532 28.9323 184.823 28.4531C185.115 27.9688 185.269 27.2135 185.284 26.1875V23.6172Z" fill="#FED356" fill-opacity="0.05"/>
<path d="M202.883 30.5312H200.993V21.3984L198.203 22.3516V20.75L202.641 19.1172H202.883V30.5312Z" fill="#FED356" fill-opacity="0.05"/>
<path d="M223.13 25.7422C223.13 27.3776 222.823 28.612 222.208 29.4453C221.599 30.2734 220.669 30.6875 219.419 30.6875C218.19 30.6875 217.263 30.2839 216.638 29.4766C216.018 28.6641 215.701 27.4635 215.685 25.875V23.9062C215.685 22.2708 215.99 21.0443 216.599 20.2266C217.214 19.4089 218.149 19 219.404 19C220.649 19 221.576 19.3984 222.185 20.1953C222.8 20.9922 223.115 22.1849 223.13 23.7734V25.7422ZM221.232 23.6172C221.232 22.5495 221.086 21.7682 220.794 21.2734C220.503 20.7734 220.039 20.5234 219.404 20.5234C218.784 20.5234 218.328 20.7604 218.037 21.2344C217.745 21.7031 217.591 22.4375 217.576 23.4375V26.0156C217.576 27.0781 217.724 27.8698 218.021 28.3906C218.318 28.9115 218.784 29.1719 219.419 29.1719C220.029 29.1719 220.479 28.9323 220.771 28.4531C221.063 27.9688 221.216 27.2135 221.232 26.1875V23.6172Z" fill="#FED356" fill-opacity="0.05"/>
<path d="M238.831 30.5312H236.94V21.3984L234.151 22.3516V20.75L238.588 19.1172H238.831V30.5312Z" fill="#FED356" fill-opacity="0.05"/>
<path d="M259.078 25.7422C259.078 27.3776 258.771 28.612 258.156 29.4453C257.547 30.2734 256.617 30.6875 255.367 30.6875C254.138 30.6875 253.211 30.2839 252.586 29.4766C251.966 28.6641 251.648 27.4635 251.633 25.875V23.9062C251.633 22.2708 251.937 21.0443 252.547 20.2266C253.161 19.4089 254.096 19 255.351 19C256.596 19 257.523 19.3984 258.133 20.1953C258.747 20.9922 259.062 22.1849 259.078 23.7734V25.7422ZM257.179 23.6172C257.179 22.5495 257.034 21.7682 256.742 21.2734C256.45 20.7734 255.987 20.5234 255.351 20.5234C254.731 20.5234 254.276 20.7604 253.984 21.2344C253.692 21.7031 253.539 22.4375 253.523 23.4375V26.0156C253.523 27.0781 253.672 27.8698 253.968 28.3906C254.265 28.9115 254.731 29.1719 255.367 29.1719C255.976 29.1719 256.427 28.9323 256.718 28.4531C257.01 27.9688 257.164 27.2135 257.179 26.1875V23.6172Z" fill="#FED356" fill-opacity="0.05"/>
<path d="M274.778 30.5312H272.888V21.3984L270.098 22.3516V20.75L274.536 19.1172H274.778V30.5312Z" fill="#FED356" fill-opacity="0.05"/>
<path d="M295.025 25.7422C295.025 27.3776 294.718 28.612 294.103 29.4453C293.494 30.2734 292.564 30.6875 291.314 30.6875C290.085 30.6875 289.158 30.2839 288.533 29.4766C287.913 28.6641 287.596 27.4635 287.58 25.875V23.9062C287.58 22.2708 287.885 21.0443 288.494 20.2266C289.109 19.4089 290.044 19 291.299 19C292.544 19 293.471 19.3984 294.08 20.1953C294.695 20.9922 295.01 22.1849 295.025 23.7734V25.7422ZM293.127 23.6172C293.127 22.5495 292.981 21.7682 292.689 21.2734C292.398 20.7734 291.934 20.5234 291.299 20.5234C290.679 20.5234 290.223 20.7604 289.932 21.2344C289.64 21.7031 289.486 22.4375 289.471 23.4375V26.0156C289.471 27.0781 289.619 27.8698 289.916 28.3906C290.213 28.9115 290.679 29.1719 291.314 29.1719C291.924 29.1719 292.374 28.9323 292.666 28.4531C292.958 27.9688 293.111 27.2135 293.127 26.1875V23.6172Z" fill="#FED356" fill-opacity="0.05"/>
<path d="M310.726 30.5312H308.835V21.3984L306.046 22.3516V20.75L310.483 19.1172H310.726V30.5312Z" fill="#FED356" fill-opacity="0.05"/>
<path d="M330.973 25.7422C330.973 27.3776 330.665 28.612 330.051 29.4453C329.442 30.2734 328.512 30.6875 327.262 30.6875C326.033 30.6875 325.106 30.2839 324.481 29.4766C323.861 28.6641 323.543 27.4635 323.527 25.875V23.9062C323.527 22.2708 323.832 21.0443 324.442 20.2266C325.056 19.4089 325.991 19 327.246 19C328.491 19 329.418 19.3984 330.027 20.1953C330.642 20.9922 330.957 22.1849 330.973 23.7734V25.7422ZM329.074 23.6172C329.074 22.5495 328.929 21.7682 328.637 21.2734C328.345 20.7734 327.882 20.5234 327.246 20.5234C326.626 20.5234 326.171 20.7604 325.879 21.2344C325.587 21.7031 325.434 22.4375 325.418 23.4375V26.0156C325.418 27.0781 325.567 27.8698 325.863 28.3906C326.16 28.9115 326.626 29.1719 327.262 29.1719C327.871 29.1719 328.322 28.9323 328.613 28.4531C328.905 27.9688 329.059 27.2135 329.074 26.1875V23.6172Z" fill="#FED356" fill-opacity="0.05"/>
<path d="M346.673 30.5312H344.782V21.3984L341.993 22.3516V20.75L346.431 19.1172H346.673V30.5312Z" fill="#FED356" fill-opacity="0.05"/>
</svg>
