<svg width="104" height="123" viewBox="0 0 104 123" fill="none" xmlns="http://www.w3.org/2000/svg">
<g filter="url(#filter0_d)">
<path d="M0 13.739C17.3625 6.15118 37.5887 14.0751 45.1765 31.4375L70.1807 88.652C73.9746 97.3332 70.0126 107.446 61.3314 111.24C52.6502 115.034 42.5371 111.072 38.7431 102.391L0 13.739Z" fill="white"/>
<path d="M53.2245 29.4705C49.4306 20.7892 53.3925 10.6761 62.0737 6.88221C70.755 3.0883 80.8681 7.05025 84.662 15.7315L100 50.8278L93.97 53.4631C79.9378 59.5955 63.5912 53.1915 57.4587 39.1593L53.2245 29.4705Z" fill="white"/>
<path d="M73.5308 10.7212C77.614 11.3982 79.2724 13.2253 81.2339 18.7745" stroke="black" stroke-opacity="0.1" stroke-width="2" stroke-linecap="round" stroke-linejoin="round"/>
<path d="M35.3647 82.501C39.4395 91.0502 41.2191 96.0266 47.2697 103.86C49.9569 106.706 51.6387 107.42 54.9729 107.011" stroke="black" stroke-opacity="0.06" stroke-width="6" stroke-linecap="round" stroke-linejoin="round"/>
<circle cx="81.9342" cy="20.5252" r="0.700289" fill="black" fill-opacity="0.1"/>
</g>
<defs>
<filter id="filter0_d" x="0" y="0" width="104" height="122.11" filterUnits="userSpaceOnUse" color-interpolation-filters="sRGB">
<feFlood flood-opacity="0" result="BackgroundImageFix"/>
<feColorMatrix in="SourceAlpha" type="matrix" values="0 0 0 0 0 0 0 0 0 0 0 0 0 0 0 0 0 0 127 0"/>
<feOffset dx="4" dy="4"/>
<feColorMatrix type="matrix" values="0 0 0 0 0 0 0 0 0 0 0 0 0 0 0 0 0 0 0.25 0"/>
<feBlend mode="normal" in2="BackgroundImageFix" result="effect1_dropShadow"/>
<feBlend mode="normal" in="SourceGraphic" in2="effect1_dropShadow" result="shape"/>
</filter>
</defs>
</svg>
